<?xml version="1.0" ?>
<!-- Uploaded to: SVG Repo, www.svgrepo.com, Generator: SVG Repo Mixer Tools -->
<svg width="800px" height="800px" viewBox="0 0 64 64" xmlns="http://www.w3.org/2000/svg">
<defs>
<style>.cls-1,.cls-2{fill:none;stroke:#000000;stroke-linejoin:round;stroke-width:2px;}.cls-1{stroke-linecap:round;}</style>
</defs>
<g id="free-shipping">
<circle class="cls-1" cx="53" cy="17" r="2"/>
<circle cx="45.5" cy="23.5" r="1.0691"/>
<circle cx="16.5" cy="14.5" r="1.0691"/>
<polyline class="cls-1" points="53.934 54 61 54 61 43.485 54 40 49.476 31 39.173 31"/>
<line class="cls-1" x1="20.6727" x2="44.1886" y1="54" y2="54"/>
<polyline class="cls-1" points="10.748 24 3 24 3 54 10.894 54"/>
<polyline class="cls-1" points="39 49 39 24 32.161 24"/>
<line class="cls-1" x1="43" x2="45" y1="44" y2="44"/>
<circle class="cls-1" cx="49.0802" cy="54.75" r="4.75"/>
<circle class="cls-1" cx="15.7406" cy="54.75" r="4.75"/>
<polyline class="cls-1" points="26 37 23 37 23 43 26 43"/>
<line class="cls-1" x1="26" x2="23" y1="40" y2="40"/>
<polyline class="cls-1" points="32 37 29 37 29 43 32 43"/>
<line class="cls-1" x1="32" x2="29" y1="40" y2="40"/>
<polyline class="cls-1" points="13 37 10 37 10 43"/>
<line class="cls-1" x1="13" x2="10" y1="40" y2="40"/>
<path class="cls-1" d="M16,43V37h2.6439A1.3562,1.3562,0,0,1,20,38.3561v.2878A1.3562,1.3562,0,0,1,18.6439,40H17l3,3"/>
<path class="cls-1" d="M31.5561,22.7505,27.623,17.8342a2.0742,2.0742,0,0,0-2.598-.5845,2.001,2.001,0,0,0-.5919,3l1.4,1.75H12.9946a2,2,0,0,0-2,2h0a2,2,0,0,0,2,2H25.8335l-1.317,1.6462a2.1129,2.1129,0,0,0,.2609,2.9407,2,2,0,0,0,2.7787-.3374l4-5A2,2,0,0,0,31.5561,22.7505Z"/>
<line class="cls-1" x1="33" x2="30" y1="7" y2="10"/>
<line class="cls-1" x1="30" x2="33" y1="7" y2="10"/>
<line class="cls-2" x1="39" x2="54" y1="40" y2="40"/>
<line class="cls-2" x1="3" x2="61" y1="50" y2="50"/>
</g>
</svg>